<?xml version="1.0" encoding="utf-8"?>
<!-- Generator: Adobe Illustrator 27.0.0, SVG Export Plug-In . SVG Version: 6.00 Build 0)  -->
<svg version="1.1" id="Layer_1" xmlns="http://www.w3.org/2000/svg" xmlns:xlink="http://www.w3.org/1999/xlink" x="0px" y="0px"
	 viewBox="0 0 170 41" style="enable-background:new 0 0 170 41;" xml:space="preserve">
<style type="text/css">
	.st0{display:none;fill-rule:evenodd;clip-rule:evenodd;fill:#F15757;}
	.st1{enable-background:new    ;}
	.st2{fill:#6366F1;}
</style>
<path class="st0" d="M86.7-32.2c10.1,4.4,21.9-0.3,26.3-10.4s-0.3-21.9-10.4-26.3c-10.1-4.4-21.9,0.3-26.3,10.4
	C71.9-48.3,76.5-36.6,86.7-32.2z M104.6-57.8c0.7-0.9,0-1.9-1.1-1.6l-16,3.4c-1.2,0.3-1.7,1.7-0.7,2.1l3.2,1.4l0,0l6.3,2.7l-5.9-0.4
	l-5.7,7c-0.7,0.9,0,1.9,1.1,1.6l16-3.4c1.2-0.3,1.7-1.7,0.7-2.1l-4.9-2.1L104.6-57.8z"/>
<g class="st1">
	<path d="M54.4,16.6c0,0.1-0.1,0.1-0.2,0.1c-0.5,0-1.2,0-2.1-0.1c-0.9-0.1-1.7-0.1-2.1-0.1c-0.6,0-0.9,0-1,0.1
		c-0.2,0.1-0.3,0.4-0.3,0.9c0,0.6,0.1,0.9,0.4,1c0.1,0,0.3,0,0.6,0c0.4,0,1.1,0,1.9-0.1c0.9,0,1.5-0.1,1.9-0.1
		c0.2,0,0.3,0.5,0.3,1.6c0,0.9,0,1.5-0.1,1.7c0,0.1-0.1,0.2-0.3,0.2c0.1,0-0.1,0-0.6-0.1c-0.7-0.1-1.7-0.1-3-0.1c-0.4,0-0.7,0-0.7,0
		c-0.3,0-0.5,0.2-0.5,0.4c0,0.9,0,1.9,0.1,3c0.1,1,0.1,1.5,0.1,1.4c0,0.2-0.2,0.3-0.6,0.3c0.1,0-0.2,0-0.8,0c-1.2,0-1.9,0-2.2-0.1
		c-0.2,0-0.3-0.1-0.3-0.3c0-0.7,0-1.7,0.1-3.1c0-1.4,0.1-2.4,0.1-3.1c0-0.8,0-1.8-0.1-3.1c-0.1-1.9-0.2-2.9-0.2-3.1v-0.1
		c0-0.2,0.1-0.2,0.3-0.2c0.5,0,1.2,0,2.1,0s1.6,0,2.1,0s1.2,0,2.2-0.1s1.7-0.1,2.2-0.1c0.3,0,0.5,0.1,0.5,0.4c0,0.3,0,0.7,0,1.2
		c0,0.1,0.1,0.4,0.1,0.8C54.4,16.1,54.4,16.4,54.4,16.6z"/>
	<path d="M61.6,20.8c0,0.2-0.1,0.4-0.4,0.4c-0.1,0-0.3,0-0.5,0s-0.4,0-0.5,0c-0.5,0-0.9,0.1-1.1,0.2c-0.2,0.2-0.3,0.5-0.3,1
		c0,0.3,0,0.7,0,1.2s0,0.9,0,1.2c0,0.2,0,0.4,0,0.8s0,0.6,0,0.8c0,0.1-0.1,0.2-0.3,0.3c-0.3,0-0.8,0-1.4,0c-0.6,0-1.1,0-1.4-0.1
		c-0.2,0-0.3-0.1-0.3-0.3c0-0.5,0-1.2,0-2.2s0-1.7,0-2.2c0-1.5-0.1-2.7-0.4-3.6c0-0.1,0-0.1,0-0.1c0-0.1,0-0.2,0.1-0.2
		c0.3,0,0.8-0.1,1.5-0.2c1-0.2,1.5-0.3,1.5-0.3c0.1,0,0.2,0.2,0.2,0.6s0.1,0.6,0.2,0.6c-0.1,0,0.2-0.2,0.8-0.5s1.2-0.5,1.7-0.5
		c0.3,0,0.5,0.1,0.5,0.2c0,0.2,0,0.4-0.1,0.8c0,0.4-0.1,0.6-0.1,0.8c0,0.2,0,0.4,0,0.7C61.6,20.4,61.6,20.7,61.6,20.8z"/>
	<path d="M71.2,21.5c0,0.6-0.2,1-0.6,1.1c-0.1,0-0.7,0.1-1.9,0.2c-0.7,0.1-1.8,0.2-3.3,0.3c0.1,0.4,0.4,0.7,0.8,0.9
		c0.4,0.2,0.8,0.3,1.2,0.3c0.6,0,1.1-0.1,1.7-0.4c0.2-0.1,0.5-0.3,0.7-0.4c0.1,0.1,0.3,0.4,0.7,0.9c0.3,0.6,0.5,0.9,0.5,1.1
		c0,0,0,0.1-0.1,0.2c-0.8,0.8-1.9,1.2-3.5,1.2c-1.5,0-2.7-0.4-3.6-1.3s-1.4-2-1.4-3.5c0-1.4,0.4-2.6,1.2-3.5c0.9-0.9,2-1.4,3.4-1.4
		c1.2,0,2.2,0.4,3,1.3C70.8,19.3,71.2,20.3,71.2,21.5z M67.9,21c0-0.4-0.1-0.7-0.4-1s-0.6-0.4-1-0.4s-0.7,0.2-1,0.5
		c-0.2,0.3-0.4,0.7-0.4,1.1c0,0.2,0.1,0.3,0.3,0.3c0.5,0,1.2-0.1,2.1-0.2C67.8,21.1,67.9,21,67.9,21z"/>
	<path d="M80.8,21.5c0,0.6-0.2,1-0.6,1.1c-0.1,0-0.7,0.1-1.9,0.2c-0.7,0.1-1.8,0.2-3.3,0.3c0.1,0.4,0.4,0.7,0.8,0.9
		c0.4,0.2,0.8,0.3,1.2,0.3c0.6,0,1.1-0.1,1.7-0.4c0.2-0.1,0.5-0.3,0.7-0.4c0.1,0.1,0.3,0.4,0.7,0.9c0.3,0.6,0.5,0.9,0.5,1.1
		c0,0,0,0.1-0.1,0.2c-0.8,0.8-1.9,1.2-3.5,1.2c-1.5,0-2.7-0.4-3.6-1.3s-1.4-2-1.4-3.5c0-1.4,0.4-2.6,1.2-3.5c0.9-0.9,2-1.4,3.4-1.4
		c1.2,0,2.2,0.4,3,1.3C80.3,19.3,80.8,20.3,80.8,21.5z M77.5,21c0-0.4-0.1-0.7-0.4-1s-0.6-0.4-1-0.4s-0.7,0.2-1,0.5
		c-0.2,0.3-0.4,0.7-0.4,1.1c0,0.2,0.1,0.3,0.3,0.3c0.5,0,1.2-0.1,2.1-0.2C77.4,21.1,77.5,21,77.5,21z"/>
	<path d="M92.7,24.5c0,0.1-0.1,0.2-0.2,0.4c-1.1,1.4-2.7,2-4.6,2s-3.5-0.7-4.7-2s-1.8-2.9-1.8-4.8c0-1.9,0.6-3.5,1.7-4.8
		c1.2-1.4,2.7-2.1,4.6-2.1c2,0,3.6,0.6,4.7,1.9c0.1,0.1,0.2,0.3,0.2,0.4c0,0.1-0.2,0.6-0.6,1.3c-0.4,0.8-0.7,1.2-0.8,1.3
		c-0.1,0-0.1,0.1-0.2,0.1c0,0-0.2-0.1-0.5-0.4s-0.7-0.5-1-0.7c-0.5-0.2-1-0.4-1.5-0.4c-0.9,0-1.6,0.3-2.2,1C85.3,18.3,85,19.1,85,20
		s0.3,1.7,0.8,2.4c0.5,0.7,1.3,1,2.2,1c0.5,0,1.1-0.1,1.5-0.4c0.3-0.2,0.6-0.4,1-0.7c0.3-0.2,0.4-0.4,0.5-0.4s0.1,0,0.2,0.1
		s0.4,0.5,0.8,1.2C92.5,24,92.7,24.4,92.7,24.5z"/>
	<path d="M102.6,22c0,1.4-0.4,2.6-1.3,3.4c-0.9,0.9-2,1.3-3.4,1.3s-2.5-0.4-3.4-1.3s-1.3-2-1.3-3.4s0.4-2.6,1.3-3.5
		c0.8-0.9,2-1.3,3.4-1.3s2.5,0.4,3.4,1.3C102.2,19.5,102.6,20.6,102.6,22z M99.6,22c0-0.5-0.2-0.9-0.5-1.3s-0.7-0.6-1.2-0.6
		s-0.9,0.2-1.2,0.6c-0.3,0.4-0.4,0.8-0.4,1.3s0.1,0.9,0.4,1.3s0.7,0.6,1.2,0.6s0.9-0.2,1.2-0.6C99.4,22.9,99.6,22.5,99.6,22z"/>
	<path d="M113,26.3c0,0.2-0.1,0.3-0.3,0.3s-0.6,0-1.4,0s-1.3,0-1.5-0.1c-0.2,0-0.3-0.2-0.3-0.4c0-0.3,0-0.7,0-1.3c0-0.6,0-1,0-1.3
		c0-0.2,0-0.6,0-1c0-0.5,0-0.8,0-1c0-0.8-0.4-1.3-1.1-1.3c-0.2,0-0.5,0.1-0.8,0.3c-0.3,0.2-0.5,0.5-0.5,0.7v5c0,0.2-0.1,0.3-0.3,0.3
		c-0.2,0-0.7,0-1.3,0c-0.7,0-1.2,0-1.4-0.1c-0.2,0-0.3-0.1-0.3-0.3c0-0.5,0-1.2,0-2.2s0-1.7,0-2.2c0-1.5-0.1-2.8-0.4-3.6
		c0-0.1,0-0.1,0-0.1c0-0.1,0-0.2,0.1-0.2c0.4,0,0.9-0.1,1.6-0.2c1-0.2,1.5-0.3,1.7-0.3c0.1,0,0.1,0.2,0.2,0.6c0,0.4,0.1,0.6,0.2,0.6
		c-0.1,0,0.3-0.2,1-0.6s1.4-0.6,1.9-0.6c0.8,0,1.4,0.2,2,0.6s0.9,1,0.9,1.8v3c0,0.4,0,1,0,1.8C113,25.3,113,25.9,113,26.3z"/>
	<path d="M123.5,20.1c0,1.1,0,1.7-0.1,1.9c-0.1,0.4-0.6,1.2-1.3,2.2c-0.6,0.9-1.2,1.6-1.6,2.1c-0.2,0.2-0.6,0.3-1.5,0.3
		c-0.7,0-1.2,0-1.4-0.1c-0.1,0-0.2-0.1-0.3-0.2c-0.4-0.4-0.9-1.1-1.6-2.1c-0.7-1.1-1.2-1.8-1.3-2.2c-0.2-0.4-0.2-1.1-0.2-1.9
		c0-0.2,0-0.6,0-1.1s0-0.9,0-1.1s0.1-0.2,0.3-0.2c0.3,0,0.8,0,1.4,0s1.1,0,1.4,0c0.1,0,0.2,0.1,0.2,0.3c0,0.2,0,0.4,0,0.8
		s0,0.6,0,0.8c0,0.6,0,1.2,0.1,1.6c0,0.2,0.2,0.6,0.5,1.2c0.4,0.6,0.6,0.9,0.8,0.9c0.2,0,0.4-0.3,0.7-0.9c0.3-0.6,0.5-0.9,0.5-1.2
		c0-0.4,0.1-1,0.1-1.6c0-0.2,0-0.5-0.1-0.8S120,18.2,120,18s0.1-0.3,0.2-0.3s0.4,0,0.7,0c0.3,0,0.5,0,0.7,0s0.4,0,0.7,0
		c0.3,0,0.5,0,0.7,0s0.3,0.1,0.3,0.2C123.4,18.3,123.5,19,123.5,20.1z"/>
	<path d="M133.3,21.5c0,0.6-0.2,1-0.6,1.1c-0.1,0-0.7,0.1-1.9,0.2c-0.7,0.1-1.8,0.2-3.3,0.3c0.1,0.4,0.4,0.7,0.8,0.9
		c0.4,0.2,0.8,0.3,1.2,0.3c0.6,0,1.1-0.1,1.7-0.4c0.2-0.1,0.5-0.3,0.7-0.4c0.1,0.1,0.3,0.4,0.7,0.9c0.3,0.6,0.5,0.9,0.5,1.1
		c0,0,0,0.1-0.1,0.2c-0.8,0.8-1.9,1.2-3.5,1.2c-1.5,0-2.7-0.4-3.6-1.3s-1.4-2-1.4-3.5c0-1.4,0.4-2.6,1.2-3.5c0.9-0.9,2-1.4,3.4-1.4
		c1.2,0,2.2,0.4,3,1.3C132.9,19.3,133.3,20.3,133.3,21.5z M130,21c0-0.4-0.1-0.7-0.4-1s-0.6-0.4-1-0.4s-0.7,0.2-1,0.5
		c-0.2,0.3-0.4,0.7-0.4,1.1c0,0.2,0.1,0.3,0.3,0.3c0.5,0,1.2-0.1,2.1-0.2C129.9,21.1,130,21,130,21z"/>
	<path d="M140.5,20.8c0,0.2-0.1,0.4-0.4,0.4c-0.1,0-0.3,0-0.5,0s-0.4,0-0.5,0c-0.5,0-0.9,0.1-1.1,0.2c-0.2,0.2-0.3,0.5-0.3,1
		c0,0.3,0,0.7,0,1.2s0,0.9,0,1.2c0,0.2,0,0.4,0,0.8s0,0.6,0,0.8c0,0.1-0.1,0.2-0.3,0.3c-0.3,0-0.8,0-1.4,0c-0.6,0-1.1,0-1.4-0.1
		c-0.2,0-0.3-0.1-0.3-0.3c0-0.5,0-1.2,0-2.2s0-1.7,0-2.2c0-1.5-0.1-2.7-0.4-3.6c0-0.1,0-0.1,0-0.1c0-0.1,0-0.2,0.1-0.2
		c0.3,0,0.8-0.1,1.5-0.2c1-0.2,1.5-0.3,1.5-0.3c0.1,0,0.2,0.2,0.2,0.6s0.1,0.6,0.2,0.6c-0.1,0,0.2-0.2,0.8-0.5s1.2-0.5,1.7-0.5
		c0.3,0,0.5,0.1,0.5,0.2c0,0.2,0,0.4-0.1,0.8c0,0.4-0.1,0.6-0.1,0.8c0,0.2,0,0.4,0,0.7C140.5,20.4,140.5,20.7,140.5,20.8z"/>
	<path d="M147.8,23.9c0,0.2,0,0.5-0.1,0.8c0,0.4-0.1,0.7-0.1,0.8s0,0.3-0.1,0.3s-0.1,0.1-0.3,0.2c-0.8,0.4-1.7,0.7-2.7,0.7
		c-1.8,0-2.7-0.7-2.7-2.1c0-0.4,0-1,0-1.8s0-1.4,0-1.8c0-0.3-0.2-0.4-0.5-0.4h-0.1c-0.1,0-0.1,0-0.1,0c-0.2,0-0.4-0.1-0.4-0.3
		c0-0.1,0-0.3,0-0.5s0-0.4,0-0.5s0-0.3,0-0.6c0-0.3,0-0.5,0-0.6s0.2-0.2,0.6-0.2c0.2,0,0.3-0.1,0.4-0.2c0-0.2,0-0.6,0-1.1
		c0-0.8,0-1.2,0-1.1c0-0.7,0.1-1.1,0.2-1.1c0.2,0,0.4,0,0.7,0.1c0.4,0.1,0.6,0.1,0.7,0.1c0.3,0,0.8,0.1,1.4,0.2
		c0.2,0,0.2,0.1,0.2,0.2c0,0.2,0,0.6-0.1,1.1c0,0.5-0.1,0.9-0.1,1.1c0,0.3,0.1,0.5,0.3,0.5s0.5,0,1,0s0.8,0,1,0c0.1,0,0.2,0,0.2,0.1
		s0,0.4,0,0.6c0,0.3,0,0.5,0,0.6s0,0.4,0,0.7c0,0.3,0,0.5,0,0.7c0,0.1-0.1,0.2-0.3,0.2c-0.1,0-0.3,0-0.6,0s-0.5,0-0.6,0H145
		c-0.1,0-0.1,0.1-0.1,0.4c0,0.1,0,0.4,0,0.7c0,0.3,0,0.5,0,0.7c0,0.5,0.1,0.9,0.2,1.1c0.2,0.3,0.5,0.4,1,0.4c0.2,0,0.4,0,0.7-0.1
		s0.5-0.1,0.6-0.1C147.7,23.6,147.8,23.7,147.8,23.9z"/>
	<path d="M157.3,21.5c0,0.6-0.2,1-0.6,1.1c-0.1,0-0.7,0.1-1.9,0.2c-0.7,0.1-1.8,0.2-3.3,0.3c0.1,0.4,0.4,0.7,0.8,0.9
		c0.4,0.2,0.8,0.3,1.2,0.3c0.6,0,1.1-0.1,1.7-0.4c0.2-0.1,0.5-0.3,0.7-0.4c0.1,0.1,0.3,0.4,0.7,0.9c0.3,0.6,0.5,0.9,0.5,1.1
		c0,0,0,0.1-0.1,0.2c-0.8,0.8-1.9,1.2-3.5,1.2c-1.5,0-2.7-0.4-3.6-1.3c-0.9-0.9-1.4-2-1.4-3.5c0-1.4,0.4-2.6,1.2-3.5
		c0.9-0.9,2-1.4,3.4-1.4c1.2,0,2.2,0.4,3,1.3C156.9,19.3,157.3,20.3,157.3,21.5z M154,21c0-0.4-0.1-0.7-0.4-1s-0.6-0.4-1-0.4
		s-0.7,0.2-1,0.5c-0.2,0.3-0.4,0.7-0.4,1.1c0,0.2,0.1,0.3,0.3,0.3c0.5,0,1.2-0.1,2.1-0.2C153.9,21.1,154,21,154,21z"/>
	<path d="M164.5,20.8c0,0.2-0.1,0.4-0.4,0.4c-0.1,0-0.3,0-0.5,0s-0.4,0-0.5,0c-0.5,0-0.9,0.1-1.1,0.2c-0.2,0.2-0.3,0.5-0.3,1
		c0,0.3,0,0.7,0,1.2s0,0.9,0,1.2c0,0.2,0,0.4,0,0.8s0,0.6,0,0.8c0,0.1-0.1,0.2-0.3,0.3c-0.3,0-0.8,0-1.4,0c-0.6,0-1.1,0-1.4-0.1
		c-0.2,0-0.3-0.1-0.3-0.3c0-0.5,0-1.2,0-2.2s0-1.7,0-2.2c0-1.5-0.1-2.7-0.4-3.6c0-0.1,0-0.1,0-0.1c0-0.1,0-0.2,0.1-0.2
		c0.3,0,0.8-0.1,1.5-0.2c1-0.2,1.5-0.3,1.5-0.3c0.1,0,0.2,0.2,0.2,0.6s0.1,0.6,0.2,0.6c-0.1,0,0.2-0.2,0.8-0.5s1.2-0.5,1.7-0.5
		c0.3,0,0.5,0.1,0.5,0.2c0,0.2,0,0.4-0.1,0.8c0,0.4-0.1,0.6-0.1,0.8c0,0.2,0,0.4,0,0.7C164.5,20.4,164.5,20.7,164.5,20.8z"/>
</g>
<path class="st2" d="M20.5,0C9.2,0,0,9.2,0,20.5S9.2,41,20.5,41S41,31.8,41,20.5S31.8,0,20.5,0z M33,6.2l-8.4,10.3
	c-0.3,0.3-0.1,0.8,0.2,1l6.4,2.8c0.6,0.2,0.5,1.1-0.1,1.2l-12.6,2.7c-0.1,0-0.3,0.1-0.4,0.2L9,35.6c-0.4,0.5-1.2,0.1-1.1-0.5l1.2-9
	L9.4,24l1.7-12.5l0.2-1.4c0-0.3,0.2-0.5,0.5-0.5l11.3-2.4l9.3-2C33,5,33.4,5.7,33,6.2z"/>
</svg>
