<?xml version="1.0" encoding="utf-8"?>
<!-- Generator: Adobe Illustrator 27.0.0, SVG Export Plug-In . SVG Version: 6.00 Build 0)  -->
<svg version="1.1" id="Layer_1" xmlns="http://www.w3.org/2000/svg" xmlns:xlink="http://www.w3.org/1999/xlink" x="0px" y="0px"
	 viewBox="0 0 41 41" style="enable-background:new 0 0 41 41;" xml:space="preserve">
<style type="text/css">
	.st0{fill:#6168B0;}
</style>
<path class="st0" d="M20.5,0C9.2,0,0,9.2,0,20.5S9.2,41,20.5,41S41,31.8,41,20.5S31.8,0,20.5,0z M33,6.2l-8.4,10.3
	c-0.3,0.3-0.1,0.8,0.2,1l6.4,2.8c0.6,0.2,0.5,1.1-0.1,1.2l-12.6,2.7c-0.1,0-0.3,0.1-0.4,0.2L9,35.6c-0.4,0.5-1.2,0.1-1.1-0.5l1.2-9
	L9.4,24l1.7-12.5l0.2-1.4c0-0.3,0.2-0.5,0.5-0.5l11.3-2.4l9.3-2C33,5,33.4,5.7,33,6.2z"/>
</svg>
